<?xml version="1.0" encoding="utf-8"?>
<!-- Uploaded to: SVG Repo, www.svgrepo.com, Generator: SVG Repo Mixer Tools -->
<svg width="800px" height="800px" viewBox="-32 0 512 512" xmlns="http://www.w3.org/2000/svg">
    <!-- Background rectangle to ensure a white background -->
    <rect x="-32" y="0" width="512" height="512" fill="#FFFFFF" />
    <!-- Mail icon with white fill and black outline -->
    <path d="M400 32H48C21.49 32 0 53.49 0 80v352c0 26.51 21.49 48 48 48h352c26.51 0 48-21.49 48-48V80c0-26.51-21.49-48-48-48z
    M178.117 262.104C87.429 196.287 88.353 196.121 64 177.167V152
    c0-13.255 10.745-24 24-24h272c13.255 0 24 10.745 24 24v25.167
    c-24.371 18.969-23.434 19.124-114.117 84.938
    -10.5 7.655-31.392 26.12-45.883 25.894
    -14.503.218-35.367-18.227-45.883-25.895z
    M384 217.775V360
    c0 13.255-10.745 24-24 24H88
    c-13.255 0-24-10.745-24-24V217.775
    c13.958 10.794 33.329 25.236 95.303 70.214
    14.162 10.341 37.975 32.145 64.694 32.01
    26.887.134 51.037-22.041 64.72-32.025
    61.958-44.965 81.325-59.406 95.283-70.199z"
          fill="#FFFFFF" stroke="#000000" stroke-width="16" fill-rule="evenodd" />
</svg>
